<?xml version="1.0" encoding="UTF-8" standalone="no"?><svg width="137" height="72" viewBox="0 0 137 72" fill="none" xmlns="http://www.w3.org/2000/svg">
<path d="M9.71997 7.71387C9.58681 29.5193 9.51215 41.7447 9.37899 63.5502" stroke="#FDF7F7" stroke-width="3"/>
<path d="M59.5505 7.18262C59.3794 29.9641 59.2834 42.7367 59.1123 65.5182" stroke="#FDF7F7" stroke-width="3"/>
<path d="M8.29144 63.615C60.6902 64.9773 7.54025 6.41954 59.9381 7.7811" stroke="#FDF7F7" stroke-width="3"/>
<line y1="-1.5" x2="31.2236" y2="-1.5" transform="matrix(0.810428 0.585838 -0.550936 0.834547 33.8281 47.6924)" stroke="#FDF7F7" stroke-width="3"/>
<path d="M59.753 32.9863L33.495 47.6446" stroke="#FDF7F7" stroke-width="3"/>
<line y1="-1.5" x2="27.5016" y2="-1.5" transform="matrix(0.855142 0.518394 -0.484346 0.874877 35.8753 19.1353)" stroke="#FDF7F7" stroke-width="3"/>
<path d="M74.9231 23.2217V10.2617H76.7311V15.8617H80.0591V10.2617H81.8671V23.2217H80.0591V17.1577H76.7311V23.2217H74.9231Z" fill="#FFEFEF"/>
<path d="M93.2455 23.3657C92.3708 23.3657 91.6721 23.195 91.1495 22.8537C90.6268 22.5123 90.2535 22.027 90.0295 21.3977C89.8055 20.7577 89.6935 20.011 89.6935 19.1577V14.2457C89.6935 13.3923 89.8055 12.6617 90.0295 12.0537C90.2641 11.435 90.6375 10.9657 91.1495 10.6457C91.6721 10.315 92.3708 10.1497 93.2455 10.1497C94.1201 10.1497 94.8135 10.315 95.3255 10.6457C95.8375 10.9763 96.2055 11.4457 96.4295 12.0537C96.6641 12.6617 96.7815 13.3923 96.7815 14.2457V19.1737C96.7815 20.0163 96.6641 20.7523 96.4295 21.3817C96.2055 22.011 95.8375 22.5017 95.3255 22.8537C94.8135 23.195 94.1201 23.3657 93.2455 23.3657ZM93.2455 21.9417C93.7255 21.9417 94.0881 21.8457 94.3335 21.6537C94.5788 21.451 94.7441 21.1737 94.8295 20.8217C94.9148 20.459 94.9575 20.0377 94.9575 19.5577V13.8777C94.9575 13.3977 94.9148 12.987 94.8295 12.6457C94.7441 12.2937 94.5788 12.027 94.3335 11.8457C94.0881 11.6537 93.7255 11.5577 93.2455 11.5577C92.7655 11.5577 92.3975 11.6537 92.1415 11.8457C91.8961 12.027 91.7308 12.2937 91.6455 12.6457C91.5601 12.987 91.5175 13.3977 91.5175 13.8777V19.5577C91.5175 20.0377 91.5601 20.459 91.6455 20.8217C91.7308 21.1737 91.8961 21.451 92.1415 21.6537C92.3975 21.8457 92.7655 21.9417 93.2455 21.9417Z" fill="#FFEFEF"/>
<path d="M104.912 23.2217L105.152 10.2617H106.928L109.216 20.7737L111.52 10.2617H113.28L113.52 23.2217H112.064L111.92 13.8137L109.728 23.2217H108.704L106.528 13.8137L106.384 23.2217H104.912Z" fill="#FFEFEF"/>
<path d="M119.955 23.2217V10.2617H124.979V11.6057H121.763V15.8937H124.371V17.1737H121.763V21.9257H125.011V23.2217H119.955Z" fill="#FFEFEF"/>
<path d="M76.6031 44.6934L74.4911 31.7334H75.9951L77.3871 41.0454L79.1311 31.7814H80.4111L82.1711 41.0934L83.5311 31.7334H85.0031L82.9231 44.6934H81.6111L79.8031 35.0934L77.9791 44.6934H76.6031Z" fill="#FFEFEF"/>
<path d="M93.2455 44.8374C92.3708 44.8374 91.6721 44.6667 91.1495 44.3254C90.6268 43.984 90.2535 43.4987 90.0295 42.8694C89.8055 42.2294 89.6935 41.4827 89.6935 40.6294V35.7174C89.6935 34.864 89.8055 34.1334 90.0295 33.5254C90.2641 32.9067 90.6375 32.4374 91.1495 32.1174C91.6721 31.7867 92.3708 31.6214 93.2455 31.6214C94.1201 31.6214 94.8135 31.7867 95.3255 32.1174C95.8375 32.448 96.2055 32.9174 96.4295 33.5254C96.6641 34.1334 96.7815 34.864 96.7815 35.7174V40.6454C96.7815 41.488 96.6641 42.224 96.4295 42.8534C96.2055 43.4827 95.8375 43.9734 95.3255 44.3254C94.8135 44.6667 94.1201 44.8374 93.2455 44.8374ZM93.2455 43.4134C93.7255 43.4134 94.0881 43.3174 94.3335 43.1254C94.5788 42.9227 94.7441 42.6454 94.8295 42.2934C94.9148 41.9307 94.9575 41.5094 94.9575 41.0294V35.3494C94.9575 34.8694 94.9148 34.4587 94.8295 34.1174C94.7441 33.7654 94.5788 33.4987 94.3335 33.3174C94.0881 33.1254 93.7255 33.0294 93.2455 33.0294C92.7655 33.0294 92.3975 33.1254 92.1415 33.3174C91.8961 33.4987 91.7308 33.7654 91.6455 34.1174C91.5601 34.4587 91.5175 34.8694 91.5175 35.3494V41.0294C91.5175 41.5094 91.5601 41.9307 91.6455 42.2934C91.7308 42.6454 91.8961 42.9227 92.1415 43.1254C92.3975 43.3174 92.7655 43.4134 93.2455 43.4134Z" fill="#FFEFEF"/>
<path d="M104.944 44.6934V31.7334H107.552C108.416 31.7334 109.131 31.8507 109.696 32.0854C110.262 32.3094 110.678 32.6774 110.944 33.1894C111.222 33.6907 111.36 34.352 111.36 35.1734C111.36 35.6747 111.307 36.1334 111.2 36.5494C111.094 36.9547 110.923 37.3014 110.688 37.5894C110.454 37.8667 110.144 38.0694 109.76 38.1974L111.6 44.6934H109.856L108.16 38.6134H106.752V44.6934H104.944ZM106.752 37.3174H107.44C107.952 37.3174 108.368 37.2534 108.688 37.1254C109.008 36.9974 109.243 36.7787 109.392 36.4694C109.542 36.16 109.616 35.728 109.616 35.1734C109.616 34.416 109.478 33.872 109.2 33.5414C108.923 33.2 108.374 33.0294 107.552 33.0294H106.752V37.3174Z" fill="#FFEFEF"/>
<path d="M119.955 44.6934V31.7334H121.763V37.8454L124.739 31.7334H126.419L123.859 37.4454L126.835 44.6934H125.075L122.595 38.6134L121.763 40.1174V44.6934H119.955Z" fill="#FFEFEF"/>
<path d="M78.9791 65.7802C78.2324 65.7802 77.6084 65.6202 77.1071 65.3002C76.6164 64.9802 76.2431 64.5376 75.9871 63.9722C75.7311 63.4069 75.5818 62.7509 75.5391 62.0042L77.1391 61.5722C77.1711 62.0309 77.2404 62.4736 77.3471 62.9002C77.4644 63.3269 77.6511 63.6789 77.9071 63.9562C78.1631 64.2229 78.5204 64.3562 78.9791 64.3562C79.4484 64.3562 79.8004 64.2282 80.0351 63.9722C80.2804 63.7056 80.4031 63.3269 80.4031 62.8362C80.4031 62.2496 80.2698 61.7802 80.0031 61.4282C79.7364 61.0656 79.4004 60.7029 78.9951 60.3402L76.8191 58.4202C76.3924 58.0469 76.0778 57.6416 75.8751 57.2042C75.6724 56.7562 75.5711 56.2069 75.5711 55.5562C75.5711 54.6069 75.8431 53.8709 76.3871 53.3482C76.9311 52.8256 77.6724 52.5642 78.6111 52.5642C79.1231 52.5642 79.5711 52.6336 79.9551 52.7722C80.3498 52.9002 80.6751 53.1029 80.9311 53.3802C81.1978 53.6576 81.4058 54.0096 81.5551 54.4362C81.7151 54.8522 81.8218 55.3429 81.8751 55.9082L80.3391 56.3242C80.3071 55.8976 80.2431 55.5082 80.1471 55.1562C80.0511 54.7936 79.8804 54.5056 79.6351 54.2922C79.4004 54.0682 79.0591 53.9562 78.6111 53.9562C78.1631 53.9562 77.8111 54.0789 77.5551 54.3242C77.3098 54.5589 77.1871 54.9109 77.1871 55.3802C77.1871 55.7749 77.2511 56.1002 77.3791 56.3562C77.5178 56.6122 77.7364 56.8736 78.0351 57.1402L80.2271 59.0602C80.7178 59.4869 81.1498 59.9989 81.5231 60.5962C81.8964 61.1829 82.0831 61.8816 82.0831 62.6922C82.0831 63.3322 81.9498 63.8869 81.6831 64.3562C81.4164 64.8149 81.0484 65.1669 80.5791 65.4122C80.1204 65.6576 79.5871 65.7802 78.9791 65.7802Z" fill="#FFEFEF"/>
<path d="M92.1664 65.6362V52.6762H93.9424V65.6362H92.1664Z" fill="#FFEFEF"/>
<path d="M107.05 65.6362V54.0202H104.858V52.6762H110.986V54.0202H108.858V65.6362H107.05Z" fill="#FFEFEF"/>
<path d="M120.409 65.6362V52.6762H125.433V54.0202H122.217V58.3082H124.825V59.5882H122.217V64.3402H125.465V65.6362H120.409Z" fill="#FFEFEF"/>
</svg>
